PathFileType	4	(x/y/z)	S05_PSF_T01
DataRate	CameraRate	NumFrames	NumMarkers	Units	OrigDataRate	OrigDataStartFrame	OrigNumFrames
240	240	6	50	mm	240	321	427
Frame#	Time	Sternum			R.Acromium			L.Acromium			Top.Head			R.ASIS			L.ASIS			R.PSIS			L.PSIS			R.Great.Tro			L.Great.Tro			R.Iliac.Crest			L.Iliac.Crest			V.Sacral			R.Thigh.Upper.Post			R.Thigh.Lower.Ant			R.Thigh.Lower.Post			R.Thigh.Upper.Ant			R.Knee.Lat			R.Knee.Med			R.Shank.Upper.Post			R.Shank.Lower.Ant			R.Shank.Lower.Post			R.Shank.Upper.Ant			R.Ankle.Lat			R.Ankle.Med			R.Heel.Upper			R.Heel.Med			R.Heel.Lat			R.Toe.Lat			R.Toe.Med			R.Toe.Tip			L.Thigh.Upper.Post			L.Thigh.Lower.Ant			L.Thigh.Lower.Post			L.Thigh.Upper.Ant			L.Knee.Lat			L.Shank.Upper.Post			L.Shank.Lower.Ant			L.Shank.Lower.Post			L.Shank.Upper.Ant			L.Ankle.Lat			L.Ankle.Med			L.Heel.Upper			L.Heel.Med			L.Heel.Lat			L.Toe.Lat			L.Toe.Med			L.Toe.Tip			Cervical.Spine			Back			
		X1	Y1	Z1	X2	Y2	Z2	X3	Y3	Z3	X4	Y4	Z4	X5	Y5	Z5	X6	Y6	Z6	X7	Y7	Z7	X8	Y8	Z8	X9	Y9	Z9	X10	Y10	Z10	X11	Y11	Z11	X12	Y12	Z12	X13	Y13	Z13	X14	Y14	Z14	X15	Y15	Z15	X16	Y16	Z16	X17	Y17	Z17	X18	Y18	Z18	X19	Y19	Z19	X20	Y20	Z20	X21	Y21	Z21	X22	Y22	Z22	X23	Y23	Z23	X24	Y24	Z24	X25	Y25	Z25	X26	Y26	Z26	X27	Y27	Z27	X28	Y28	Z28	X29	Y29	Z29	X30	Y30	Z30	X31	Y31	Z31	X32	Y32	Z32	X33	Y33	Z33	X34	Y34	Z34	X35	Y35	Z35	X36	Y36	Z36	X37	Y37	Z37	X38	Y38	Z38	X39	Y39	Z39	X40	Y40	Z40	X41	Y41	Z41	X42	Y42	Z42	X43	Y43	Z43	X44	Y44	Z44	X45	Y45	Z45	X46	Y46	Z46	X47	Y47	Z47	X48	Y48	Z48	X49	Y49	Z49	X50	Y50	Z50	

321	1.3333	191.22	1257	286.66	101.75	1522.6	435.41	77.774	1523.8	106.51	91.287	1825.2	242.38	122.75	1000.7	425.12	143.99	1012.3	175.84	-71.623	1017.8	321.49	-63.414	1021.5	230.03	35.528	916.64	480.12	70.385	930.24	93.266	30.698	1086.4	455.24	51.988	1084.8	120.22	-81.357	984.2	286.4	101.19	701.17	496.02	165.2	630.43	459.52	98.9	611.24	482.76	164.2	719.33	473	89.246	515.78	472.18	110.78	491.47	342.98	-128.62	416.08	444.24	-141.52	325.9	442.44	-186.63	369.06	423.01	-82.447	373.11	462.72	-234.55	274.22	419.3	-200.85	279.34	336.88	-305.35	301.62	348.75	-320.9	274.42	317.25	-330.22	278.78	382.16	-259.44	135.87	448.11	-211.44	112.03	338.74	-167.57	73.45	392.88	119.06	695.61	107.83	208.85	638.73	138.06	144.81	605.76	127.61	191.26	725.97	117.79	177.98	521.03	137.7	130.65	315.52	138.12	201.8	263.01	148.33	133.17	244.34	157.93	194.92	332.55	133.8	170.88	109.28	172.04	205.69	130.61	257.41	117.84	65.565	228.68	131.05	42.437	261.7	118.13	38.023	201.36	296.77	39.795	137.68	326.39	55.817	254.11	385.71	67.477	196.45	40.731	1562.7	275.94	-69.709	1286.4	287.5
322	1.3375	196.26	1257.5	286.35	107.01	1523.2	435.04	83.237	1524.5	106.13	96.677	1826	241.96	127.8	1001.7	424.49	148.62	1013	175.2	-66.792	1018.5	321.21	-58.694	1022.3	229.74	41.234	917.43	479.79	74.652	930.85	92.876	35.532	1087.2	454.77	56.765	1085.6	119.75	-76.507	984.87	286.11	109.69	702.6	495.68	174.28	632.64	458.71	108.4	612.64	482.46	172.25	721.54	472.12	99.935	517.19	471.82	121.14	493.12	342.51	-117.85	417.48	443.79	-130.63	327.29	442.08	-175.84	370.38	422.71	-71.613	374.58	462.26	-223.61	275.6	418.94	-189.93	280.76	336.39	-294.89	302.39	348.36	-310.29	274.97	317	-319.47	279.5	381.95	-247.35	137.46	448.17	-199.62	113.53	338.75	-155.28	75.38	392.89	122.29	695.98	107.55	211.81	638.68	137.74	147.62	606	127.39	194.64	725.99	117.43	180.21	521.07	137.48	131.78	315.8	138.29	202.68	262.94	148.24	133.97	244.62	158.12	196.12	332.48	133.72	171.08	109.39	172.13	205.96	130.63	257.49	117.7	65.703	228.77	131.06	42.46	261.72	118.15	38.102	201.38	296.81	39.766	137.69	326.46	55.637	254.18	385.81	67.206	196.5	46.082	1563.5	275.54	-64.656	1287.3	286.8
323	1.3417	201.29	1258.1	286.05	112.23	1523.9	434.69	88.686	1525.3	105.77	102.06	1826.7	241.59	132.81	1002.7	423.86	153.22	1013.7	174.55	-61.976	1019.2	320.95	-53.99	1023.1	229.48	46.903	918.26	479.48	78.882	931.44	92.508	40.373	1088	454.3	61.498	1086.3	119.28	-71.676	985.58	285.84	118.11	704.1	495.34	183.29	634.94	457.89	117.83	614.13	482.14	180.21	723.81	471.24	110.53	518.68	471.42	131.43	494.85	342	-107.07	418.72	443.3	-119.64	328.5	441.7	-164.99	371.46	422.37	-60.735	375.95	461.77	-212.49	276.68	418.55	-178.83	281.92	335.88	-284.26	302.78	347.97	-299.48	275.13	316.73	-308.55	279.82	381.71	-234.97	138.71	448.2	-187.44	114.79	338.73	-142.61	77.133	392.86	125.46	696.35	107.28	214.72	638.62	137.42	150.37	606.24	127.17	197.97	726	117.07	182.37	521.1	137.27	132.88	316.08	138.44	203.53	262.87	148.16	134.75	244.91	158.29	197.3	332.41	133.64	171.27	109.5	172.22	206.22	130.65	257.56	117.55	65.847	228.86	131.08	42.486	261.74	118.17	38.182	201.39	296.85	39.734	137.69	326.53	55.468	254.24	385.91	66.946	196.53	51.418	1564.3	275.16	-59.623	1288.3	286.12
324	1.3458	206.29	1258.6	285.76	117.43	1524.5	434.36	94.12	1526.1	105.42	107.44	1827.5	241.24	137.8	1003.7	423.23	157.8	1014.4	173.91	-57.175	1019.9	320.72	-49.301	1023.9	229.24	52.533	919.15	479.19	83.08	932.01	92.159	45.225	1088.9	453.84	66.19	1087.1	118.82	-66.863	986.31	285.61	126.45	705.67	494.97	192.21	637.31	457.06	127.19	615.7	481.79	188.09	726.14	470.37	121.03	520.25	471	141.64	496.67	341.48	-96.295	419.79	442.77	-108.55	329.53	441.3	-154.09	372.31	421.99	-49.819	377.21	461.25	-201.22	277.45	418.16	-167.58	282.81	335.37	-273.48	302.8	347.55	-288.47	274.93	316.42	-297.46	279.73	381.44	-222.29	139.63	448.19	-174.94	115.8	338.67	-129.58	78.697	392.79	128.58	696.72	107.02	217.57	638.54	137.1	153.07	606.48	126.96	201.25	725.99	116.72	184.48	521.13	137.05	133.95	316.35	138.58	204.36	262.81	148.06	135.52	245.19	158.44	198.45	332.34	133.55	171.46	109.62	172.3	206.48	130.67	257.63	117.4	65.995	228.96	131.09	42.516	261.75	118.19	38.264	201.41	296.89	39.698	137.69	326.59	55.308	254.29	386	66.697	196.56	56.738	1565.1	274.78	-54.607	1289.2	285.44
325	1.35	211.28	1259.2	285.46	122.6	1525.2	434.03	99.538	1526.9	105.08	112.82	1828.3	240.94	142.75	1004.8	422.6	162.37	1015.1	173.27	-52.385	1020.7	320.5	-44.624	1024.7	229.02	58.123	920.06	478.91	87.249	932.58	91.829	50.089	1089.8	453.38	70.844	1087.8	118.37	-62.066	987.07	285.41	134.72	707.3	494.6	201.05	639.75	456.22	136.46	617.34	481.42	195.89	728.53	469.51	131.42	521.9	470.54	151.77	498.55	340.93	-85.528	420.69	442.21	-97.379	330.39	440.9	-143.13	372.92	421.58	-38.869	378.35	460.71	-189.8	277.93	417.74	-156.17	283.44	334.85	-262.55	302.46	347.12	-277.27	274.35	316.08	-286.2	279.26	381.14	-209.36	140.23	448.15	-162.11	116.55	338.58	-116.22	80.063	392.7	131.65	697.08	106.77	220.38	638.45	136.78	155.72	606.7	126.76	204.48	725.97	116.37	186.53	521.16	136.84	135.01	316.61	138.68	205.17	262.76	147.96	136.28	245.46	158.57	199.58	332.27	133.46	171.64	109.73	172.37	206.73	130.71	257.69	117.26	66.142	229.06	131.1	42.549	261.77	118.21	38.347	201.42	296.93	39.657	137.68	326.66	55.156	254.33	386.09	66.454	196.58	62.042	1565.9	274.41	-49.609	1290.2	284.77
326	1.3542	216.25	1259.8	285.17	127.75	1525.9	433.71	104.94	1527.7	104.75	118.19	1829	240.67	147.66	1005.8	421.98	166.92	1015.8	172.63	-47.606	1021.5	320.32	-39.959	1025.5	228.82	63.675	921.02	478.66	91.395	933.13	91.515	54.966	1090.8	452.94	75.464	1088.6	117.93	-57.284	987.84	285.23	142.9	708.99	494.22	209.81	642.25	455.4	145.65	619.06	481.04	203.6	730.97	468.66	141.7	523.6	470.05	161.81	500.5	340.36	-74.772	421.41	441.62	-86.119	331.05	440.48	-132.12	373.29	421.14	-27.889	379.37	460.16	-178.23	278.1	417.32	-144.62	283.81	334.32	-251.46	301.75	346.68	-265.87	273.41	315.72	-274.78	278.39	380.81	-196.17	140.5	448.06	-148.98	117.05	338.45	-102.54	81.226	392.58	134.68	697.44	106.53	223.13	638.34	136.45	158.32	606.93	126.56	207.66	725.94	116.01	188.53	521.18	136.63	136.06	316.87	138.77	205.97	262.71	147.85	137.03	245.73	158.67	200.7	332.21	133.35	171.82	109.84	172.44	206.98	130.75	257.75	117.12	66.287	229.15	131.11	42.587	261.77	118.23	38.432	201.44	296.96	39.611	137.68	326.73	55.011	254.37	386.19	66.217	196.6	67.328	1566.7	274.05	-44.627	1291.1	284.11
